<?xml version="1.0" encoding="UTF-8"?>
<svg version="1.1" xmlns="http://www.w3.org/2000/svg" width="1024" height="1024">
<path d="M0 0 C0.69883301 0.31163086 1.39766602 0.62326172 2.11767578 0.94433594 C19.63832692 8.86067126 34.73945245 20.14660216 49.30322266 32.5703125 C50.73311783 33.77512777 52.1970325 34.93939885 53.66796875 36.09375 C56.30100325 38.24604621 58.63099094 40.55963524 61 43 C61.74056641 43.75700195 61.74056641 43.75700195 62.49609375 44.52929688 C70.76783182 53.03361438 78.26473197 61.90787982 85.35546875 71.41796875 C85.82388184 72.04493652 86.29229492 72.6719043 86.77490234 73.31787109 C87.76486151 74.67714146 88.69848768 76.07732845 89.61328125 77.48828125 C90.07089844 77.98714844 90.52851563 78.48601562 91 79 C94.81979209 79.44979334 94.81979209 79.44979334 96.38110352 77.73754883 C96.79287842 77.14997803 97.20465332 76.56240723 97.62890625 75.95703125 C98.33672241 74.97428223 98.33672241 74.97428223 99.05883789 73.97167969 C99.55504639 73.25915039 100.05125488 72.54662109 100.5625 71.8125 C101.63225055 70.33234201 102.7052232 68.8545079 103.78125 67.37890625 C104.58949219 66.26733154 104.58949219 66.26733154 105.4140625 65.13330078 C109.3323029 59.86273664 113.6581216 54.92285572 118 50 C118.46825195 49.46858398 118.93650391 48.93716797 119.41894531 48.38964844 C124.93930554 42.16183918 130.59083761 36.32576306 137 31 C137.93070313 30.18144531 138.86140625 29.36289062 139.8203125 28.51953125 C148.07718449 21.28909822 156.7993688 14.97554222 166 9 C166.99515625 8.35160156 167.9903125 7.70320313 169.015625 7.03515625 C203.30772648 -14.0860962 242.8841381 -18.7783227 282 -13 C283.28132813 -12.82855469 284.56265625 -12.65710938 285.8828125 -12.48046875 C315.76945516 -7.37697572 344.14749564 10.59874553 365 32 C365.8353125 32.76763672 365.8353125 32.76763672 366.6875 33.55078125 C375.82790893 42.15677111 383.24373616 52.73904894 388.87890625 63.92578125 C389.94627481 66.13683672 389.94627481 66.13683672 392 68 C397.16911079 79.12998059 401.10188608 91.13680117 403.9375 103.0625 C404.12417236 103.84407471 404.31084473 104.62564941 404.50317383 105.4309082 C407.2523784 117.77863976 408.39208216 130.17820971 408.375 142.8125 C408.37478851 143.47342651 408.37457703 144.13435303 408.37435913 144.81530762 C408.2151315 195.33649863 387.29825669 244.42326679 356.42578125 283.8203125 C354.39511943 286.48208177 352.68832305 289.1199195 351 292 C350.17952544 293.06840612 349.32569522 294.11219232 348.4375 295.125 C347.65632812 296.01832031 347.65632812 296.01832031 346.859375 296.9296875 C344.65312177 299.38622996 342.41957471 301.81689993 340.1875 304.25 C336.89834186 307.84217122 333.77079495 311.49291011 330.75 315.3125 C326.39943105 320.7272369 321.57647278 325.56504349 316.60839844 330.40551758 C316.02606445 330.97423584 315.44373047 331.5429541 314.84375 332.12890625 C314.31974609 332.63494385 313.79574219 333.14098145 313.25585938 333.66235352 C311.88167167 334.99818294 311.88167167 334.99818294 311 337 C310.34 337 309.68 337 309 337 C308.34 338.32 307.68 339.64 307 341 C306.34 341 305.68 341 305 341 C305 341.66 305 342.32 305 343 C303.38064505 344.71267191 301.70439028 346.3719308 300 348 C299.19436615 348.80341324 298.3887323 349.60682648 297.5586853 350.43458557 C296.28319321 351.70555336 296.28319321 351.70555336 294.98193359 353.00219727 C290.17859263 357.78925502 285.37774989 362.5788097 280.5783596 367.36982822 C277.68246284 370.26049058 274.78563008 373.15020237 271.88671875 376.0378418 C269.07123449 378.84245393 266.25820676 381.64950852 263.44685745 384.4582653 C262.37844577 385.52483387 261.30915646 386.59052405 260.23896408 387.65530586 C258.74339075 389.14360892 257.25098769 390.63502378 255.75927734 392.12719727 C254.48617203 393.39697166 254.48617203 393.39697166 253.18734741 394.69239807 C250.98476804 396.91554567 250.98476804 396.91554567 249.32754517 399.30455017 C248.67041031 400.14379784 248.67041031 400.14379784 248 401 C247.34 401 246.68 401 246 401 C245.72926163 401.59638275 245.45852325 402.1927655 245.17958069 402.80722046 C244.01255212 404.97666626 242.87174776 406.36506491 241.12670898 408.08447266 C240.54948593 408.65831696 239.97226288 409.23216125 239.37754822 409.82339478 C238.44622826 410.7345253 238.44622826 410.7345253 237.49609375 411.6640625 C236.53836815 412.61398575 236.53836815 412.61398575 235.56129456 413.58309937 C233.52472625 415.60187989 231.48158925 417.61383729 229.4375 419.625 C227.39072882 421.64416725 225.34542734 423.66476901 223.30299377 425.68832397 C222.03256434 426.94648149 220.75947158 428.20195639 219.48350525 429.45449829 C216.35670716 432.43156495 216.35670716 432.43156495 214 436 C213.34 436 212.68 436 212 436 C212 436.66 212 437.32 212 438 C210.625 439.625 210.625 439.625 209 441 C208.34 441 207.68 441 207 441 C206.74062149 441.58502289 206.48124298 442.17004578 206.21400452 442.77279663 C204.9107328 445.16376892 203.50983851 446.72481974 201.57592773 448.63525391 C200.87858017 449.32922272 200.1812326 450.02319153 199.4627533 450.7381897 C198.71063065 451.47685272 197.958508 452.21551575 197.18359375 452.9765625 C196.02610374 454.12625015 196.02610374 454.12625015 194.8452301 455.29916382 C192.38068313 457.74590177 189.90955414 460.18584894 187.4375 462.625 C184.96275662 465.07215293 182.48947206 467.52073578 180.01905823 469.97225952 C178.481535 471.49749718 176.94134713 473.02005417 175.39830017 474.53970337 C174.70410477 475.22736786 174.00990936 475.91503235 173.29467773 476.62353516 C172.68115952 477.22880035 172.0676413 477.83406555 171.43553162 478.45767212 C169.90313882 479.95870285 169.90313882 479.95870285 169 482 C168.34 482 167.68 482 167 482 C166.67 482.99 166.34 483.98 166 485 C165.34 485 164.68 485 164 485 C163.60945938 485.87900719 163.60945938 485.87900719 163.21102905 486.77577209 C161.91953204 489.1477909 160.54137256 490.69343861 158.62353516 492.58764648 C157.93587067 493.27193222 157.24820618 493.95621796 156.53970337 494.66123962 C155.79699188 495.39049149 155.0542804 496.11974335 154.2890625 496.87109375 C153.14224503 498.01010887 153.14224503 498.01010887 151.97225952 499.1721344 C149.52787003 501.598717 147.07691202 504.01852052 144.625 506.4375 C142.18108353 508.85374314 139.73865577 511.27144355 137.29916382 513.69215393 C135.78161443 515.1975102 134.2613994 516.70018527 132.7381897 518.19981384 C129.8618773 521.04905737 127.14177553 523.82079002 124.62646484 527.00024414 C124.08973145 527.66016357 123.55299805 528.32008301 123 529 C122.34 529 121.68 529 121 529 C120.77779785 529.54817383 120.5555957 530.09634766 120.32666016 530.66113281 C118.59300021 533.71753 116.26246275 535.98498952 113.7734375 538.421875 C113.26575836 538.92672424 112.75807922 539.43157349 112.23501587 539.95172119 C110.61966158 541.55592096 108.99747791 543.15300856 107.375 544.75 C106.27558302 545.83938107 105.17661941 546.9292199 104.078125 548.01953125 C101.3906398 550.68501885 98.69700979 553.34415143 96 556 C91.19765595 551.99626801 86.67397523 547.81086655 82.27368164 543.37133789 C81.64177414 542.73797012 81.00986664 542.10460236 80.35881042 541.45204163 C78.99857768 540.08802845 77.63950044 538.72286215 76.28148079 537.35664558 C74.12621398 535.18851134 71.96774814 533.02360715 69.80845642 530.85948181 C64.4475126 525.48523067 59.09203216 520.10554586 53.73638916 514.72601318 C49.20338853 510.17320894 44.66829657 505.62250713 40.13046074 501.07452202 C38.01475091 498.95237891 35.90210124 496.82722223 33.78956604 494.70191956 C25.35117868 486.18155688 25.35117868 486.18155688 16.3212738 478.30003357 C15 477 15 477 14 474 C13.40445313 473.70222656 12.80890625 473.40445312 12.1953125 473.09765625 C9.37769431 471.68884716 7.90012768 469.83608278 5.875 467.4375 C3.30529501 464.2525427 3.30529501 464.2525427 0 462 C0 461.34 0 460.68 0 460 C-0.79664063 459.690625 -0.79664063 459.690625 -1.609375 459.375 C-5.00773436 457.42038808 -7.51055928 454.77876283 -10.25 452 C-10.80429687 451.4534375 -11.35859375 450.906875 -11.9296875 450.34375 C-16 446.2533867 -16 446.2533867 -16 444 C-16.79664063 443.690625 -16.79664063 443.690625 -17.609375 443.375 C-21.00773436 441.42038808 -23.51055928 438.77876283 -26.25 436 C-26.80429687 435.4534375 -27.35859375 434.906875 -27.9296875 434.34375 C-32 430.2533867 -32 430.2533867 -32 428 C-32.57666507 427.74823565 -33.15333014 427.49647129 -33.7474699 427.23707771 C-36.29096565 425.84020319 -37.98978572 424.25907672 -40.04048157 422.20675659 C-40.83520874 421.41622391 -41.62993591 420.62569122 -42.44874573 419.811203 C-43.31168747 418.94264175 -44.17462921 418.07408051 -45.0637207 417.17919922 C-45.97964996 416.2651683 -46.89557922 415.35113739 -47.83926392 414.40940857 C-50.35021349 411.9033041 -52.85487057 409.39099617 -55.35831857 406.87740088 C-57.98494992 404.24197083 -60.61686734 401.61182949 -63.24809265 398.98098755 C-67.67068434 394.55745922 -72.08938745 390.13007659 -76.50561523 385.70019531 C-81.59639432 380.59373446 -86.69233656 375.49247442 -91.79132968 370.39421642 C-97.23375376 364.95247079 -102.67235006 359.50691171 -108.1098516 354.0602479 C-109.66889314 352.49908498 -111.22863496 350.93862469 -112.78853798 349.3783226 C-115.71139787 346.45426073 -118.62995931 343.52594378 -121.5480957 340.59716797 C-122.40496475 339.74075211 -123.2618338 338.88433624 -124.14466858 338.00196838 C-128.96366769 333.15738001 -133.55349626 328.18705729 -138 323 C-139.45445517 321.39231627 -140.91220895 319.78760285 -142.375 318.1875 C-147.102539 312.93556172 -151.59627035 307.52459205 -156 302 C-156.51723633 301.35530762 -157.03447266 300.71061523 -157.56738281 300.04638672 C-198.55761738 248.81451353 -225.00154852 188.18572793 -218.0546875 121.52612305 C-213.77226393 86.1717966 -198.56230469 54.67877309 -174 29 C-173.38125 28.3296875 -172.7625 27.659375 -172.125 26.96875 C-127.49167346 -19.89624286 -56.85590571 -25.7680637 0 0 Z M-157.31835938 47.18896484 C-183.24251794 75.10786848 -195.23625394 113.29897325 -194 151 C-190.65730245 201.63003003 -169.38712687 247.30850874 -137 286 C-136.15953125 287.01320313 -135.3190625 288.02640625 -134.453125 289.0703125 C-128.62358907 296.05741281 -122.5915288 302.82743914 -116.39599609 309.49072266 C-115.00038931 310.9995791 -113.61785802 312.51945305 -112.23828125 314.04296875 C-105.57908938 321.37025713 -98.66959341 328.40847254 -91.61083984 335.35229492 C-90.91168457 336.04299072 -90.2125293 336.73368652 -89.4921875 337.4453125 C-88.86683105 338.05906738 -88.24147461 338.67282227 -87.59716797 339.30517578 C-86 341 -86 341 -84 344 C-83.34 344 -82.68 344 -82 344 C-81.505 345.485 -81.505 345.485 -81 347 C-80.34 347 -79.68 347 -79 347 C-79 347.66 -79 348.32 -79 349 C-78.34 349 -77.68 349 -77 349 C-76.505 350.485 -76.505 350.485 -76 352 C-74.52876184 353.49658901 -74.52876184 353.49658901 -72.65893555 354.97436523 C-66.95952749 359.81487281 -61.73432428 365.12130471 -56.45703125 370.41015625 C-55.35957644 371.50693576 -54.26197337 372.60356694 -53.16423035 373.70005798 C-50.87747321 375.98535 -48.59251102 378.2724173 -46.30883789 380.56079102 C-43.39391148 383.48142757 -40.47449915 386.39753235 -37.55373096 389.31232548 C-35.29131063 391.5711196 -33.03129298 393.83230566 -30.77197838 396.09420586 C-29.69670503 397.17014208 -28.62070003 398.24534765 -27.54392433 399.31978035 C-26.03701122 400.8241314 -24.53337813 402.33168965 -23.03051758 403.84008789 C-22.17750565 404.69389542 -21.32449371 405.54770294 -20.44563293 406.42738342 C-17.8202259 409.18910844 -15.42643609 412.06311422 -13 415 C-11.80253417 416.12348513 -10.5743397 417.21575965 -9.30859375 418.26171875 C-4.30941589 422.5304553 0.30208953 427.15561272 4.9375 431.8125 C5.79923828 432.67037109 6.66097656 433.52824219 7.54882812 434.41210938 C8.36673828 435.23130859 9.18464844 436.05050781 10.02734375 436.89453125 C10.76718506 437.63550049 11.50702637 438.37646973 12.26928711 439.13989258 C14 441 14 441 15 443 C15.66 443 16.32 443 17 443 C17 443.66 17 444.32 17 445 C17.66 445 18.32 445 19 445 C19.33 445.99 19.66 446.98 20 448 C22.37505218 450.70848923 22.37505218 450.70848923 25 453 C25.66 453 26.32 453 27 453 C27.33 453.99 27.66 454.98 28 456 C28.66 456 29.32 456 30 456 C30.268125 456.639375 30.53625 457.27875 30.8125 457.9375 C31.88667752 460.33131686 31.88667752 460.33131686 35 461 C35.33 461.99 35.66 462.98 36 464 C37.97956942 465.69088222 39.97945196 467.35830472 42 469 C42.33 469.66 42.66 470.32 43 471 C43.66 471 44.32 471 45 471 C45.25720825 471.59481674 45.5144165 472.18963348 45.77941895 472.80247498 C47.11219007 475.20198617 48.41402182 476.42968869 50.52929688 478.16040039 C55.45692491 482.33511935 59.98076327 486.85493446 64.53125 491.43359375 C65.40777222 492.31153091 66.28429443 493.18946808 67.18737793 494.0940094 C69.96062796 496.87281496 72.73036282 499.65509397 75.5 502.4375 C77.39010805 504.33319865 79.28101518 506.22809783 81.171875 508.12304688 C85.78391004 512.74605189 90.39307141 517.37190657 95 522 C95.67506592 521.32348389 96.35013184 520.64696777 97.0456543 519.94995117 C99.78546514 517.21002017 102.53876293 514.48387334 105.29292297 511.75837708 C108.07282361 509.00521554 110.84744523 506.2467595 113.62182617 503.48803711 C115.08946889 502.03053524 116.55888919 500.57482128 118.0300293 499.12084961 C120.15619992 497.01880507 122.27596271 494.91048384 124.39453125 492.80078125 C125.05693314 492.14870193 125.71933502 491.49662262 126.40180969 490.82478333 C127.00631454 490.22042953 127.6108194 489.61607574 128.23364258 488.9934082 C128.76927322 488.46221878 129.30490387 487.93102936 129.85676575 487.38374329 C131.21230949 486.04217867 131.21230949 486.04217867 131 484 C131.59546631 483.74234863 132.19093262 483.48469727 132.80444336 483.21923828 C135.19683605 481.89069285 136.40782212 480.60392398 138.12890625 478.4921875 C143.23076116 472.46259876 148.93912019 467.05046417 154.58789062 461.5390625 C155.41353516 460.724375 156.23917969 459.9096875 157.08984375 459.0703125 C157.84128662 458.33570801 158.59272949 457.60110352 159.36694336 456.84423828 C161.22098054 455.16100115 161.22098054 455.16100115 161 453 C161.639375 452.731875 162.27875 452.46375 162.9375 452.1875 C165.33131686 451.11332248 165.33131686 451.11332248 166 448 C166.66 448 167.32 448 168 448 C169.43846677 446.57992612 169.43846677 446.57992612 170.94848633 444.68041992 C175.15976203 439.73223032 179.70986256 435.17569555 184.32205772 430.60277748 C185.8594035 429.07839314 187.39342976 427.55073346 188.92671204 426.02226257 C192.1774755 422.78282241 195.43219033 419.54737081 198.6875 416.3125 C202.47435716 412.54933509 206.25952714 408.78450376 210.04050636 405.01543236 C211.54510931 403.51726615 213.05271131 402.02216452 214.56047058 400.5271759 C215.93758965 399.15501167 215.93758965 399.15501167 217.3425293 397.75512695 C218.14748337 396.9554097 218.95243744 396.15569244 219.78178406 395.33174133 C222.01033921 392.98913164 223.99962376 390.53806643 226 388 C227.64336617 386.31035412 229.31326662 384.64635539 231 383 C232.13245239 381.87505307 233.26370966 380.74890231 234.39404297 379.62182617 C235.01173553 379.0073613 235.6294281 378.39289642 236.26583862 377.7598114 C239.06726407 374.97186079 241.86596106 372.18117767 244.66455078 369.39038086 C246.13370184 367.92626003 247.60374897 366.46303779 249.07470703 365.00073242 C251.21628556 362.87139011 253.35452332 360.73873984 255.4921875 358.60546875 C256.14033417 357.96248337 256.78848083 357.31949799 257.45626831 356.6570282 C261.22940397 352.88434925 264.78429104 348.98886711 268.27175903 344.95185852 C271.05000094 341.81413916 274.01700165 338.87911246 277 335.9375 C277.639375 335.30191162 278.27875 334.66632324 278.9375 334.01147461 C281.63418483 331.33091985 284.3368773 328.65645336 287.0390625 325.98144531 C296.61059335 316.57670653 296.61059335 316.57670653 305.61132812 306.63378906 C307.44202811 304.47994865 309.38039468 302.4394316 311.32275391 300.38671875 C317.53684297 293.80484406 323.19381713 286.90565969 328.68408203 279.71435547 C329.96191007 278.04962291 331.25685053 276.39997832 332.55859375 274.75390625 C342.18401003 262.52970231 350.52779261 249.64103668 358 236 C358.34836914 235.37029297 358.69673828 234.74058594 359.05566406 234.09179688 C381.44937986 193.52729627 389.30575342 146.76297118 377.15234375 101.7265625 C366.87802216 68.50045134 344.92838464 40.56215129 314.12353516 24.06738281 C281.41905099 7.62866072 244.70154043 4.67357233 209.75634766 15.70849609 C205.38470054 17.22195887 201.19341754 19.04243209 197 21 C195.81148437 21.5465625 194.62296875 22.093125 193.3984375 22.65625 C178.1033478 29.98722981 163.15429752 40.13683037 151.4375 52.52734375 C150 54 150 54 147 56.4375 C143.23613456 59.6524684 140.19752343 63.23297333 137 67 C136.0808476 68.04682189 135.16016048 69.09229742 134.23828125 70.13671875 C127.27019608 78.07583154 120.95320702 86.27659629 115 95 C114.12601563 96.22783203 114.12601563 96.22783203 113.234375 97.48046875 C110.64330375 101.15382551 110.64330375 101.15382551 110.203125 105.484375 C111.06994581 108.22080934 112.00291107 109.58904001 113.9375 111.6875 C114.5665625 112.37070312 115.195625 113.05390625 115.84375 113.7578125 C128.74487102 127.17310863 142.79744295 138.90195149 157.50683594 150.27490234 C176.63424157 165.08926553 195.65569566 182.68330363 199 208 C200.08656074 227.59988404 194.98499092 244.04758622 182 259 C181.38382813 259.74765625 180.76765625 260.4953125 180.1328125 261.265625 C174.50660765 267.90861386 168.01149506 274.34337726 160 278 C160.44730469 277.175 160.89460938 276.35 161.35546875 275.5 C171.51986264 256.08145645 177.80800766 232.4142573 171.09765625 210.72265625 C162.524926 189.45862427 144.92250161 174.73114692 125.4375 163.5 C124.82938477 163.14929443 124.22126953 162.79858887 123.59472656 162.43725586 C120.48940568 160.58294921 120.48940568 160.58294921 117 160 C116.99153612 160.832307 116.98307224 161.66461399 116.97435188 162.52214241 C116.7672739 182.82270382 116.54993145 203.12313305 116.32132149 223.42346382 C116.21100975 233.24075919 116.1041061 243.05806909 116.00537109 252.87548828 C115.91925278 261.43752897 115.82659164 269.99947027 115.7262429 278.56135643 C115.67338838 283.09008732 115.62369555 287.61880074 115.58185196 292.14764786 C115.54226736 296.42076899 115.49385608 300.693704 115.43901825 304.96665573 C115.42051335 306.52492084 115.40508158 308.08322639 115.39316177 309.64155579 C115.19969677 334.20333959 109.90473472 353.8880492 92.4375 371.78515625 C76.54742481 387.19722976 53.71130511 397.43804241 31.453125 397.21875 C16.70500684 396.28448007 4.63009438 391.91902509 -7 383 C-7.639375 382.53851562 -8.27875 382.07703125 -8.9375 381.6015625 C-15.5950886 376.45976416 -21.25464992 368.45310435 -22.7890625 360.08203125 C-24.19484634 346.20642406 -20.94834451 333.5668344 -12.0546875 322.6015625 C-10.83371266 321.23229112 -9.59116103 319.88170662 -8.3203125 318.55859375 C-6.78454308 317.08610135 -6.78454308 317.08610135 -7 315 C-6.09894531 314.59974609 -6.09894531 314.59974609 -5.1796875 314.19140625 C-2.94490675 312.96988631 -1.78786135 311.83855501 -0.125 309.9375 C12.51037104 297.00640752 33.25638287 287.11142332 51.2890625 286.671875 C53.40117646 286.68230519 55.5132702 286.70838956 57.625 286.75 C59.20667969 286.75773438 59.20667969 286.75773438 60.8203125 286.765625 C65.65022542 286.81344592 70.39691565 287.01931926 75.20248413 287.5100708 C76.10137548 287.60142933 77.00026684 287.69278786 77.92639732 287.78691483 C78.95283065 287.89239199 78.95283065 287.89239199 80 288 C80.04675433 265.59904777 80.08200568 243.19810361 80.10362434 220.79711246 C80.11392978 210.39556813 80.12797614 199.99405415 80.15087891 189.5925293 C80.17083517 180.52485189 80.18372176 171.45719646 80.18817699 162.3894977 C80.19078057 157.5897925 80.19688493 152.79015018 80.21146011 147.99046516 C80.22507934 143.46875974 80.22921388 138.94714284 80.22621536 134.42541885 C80.22676359 132.76987285 80.23071509 131.11432375 80.23841095 129.45879555 C80.3656242 113.04505071 80.3656242 113.04505071 73 98.75 C72.50943115 98.1094165 72.0188623 97.46883301 71.51342773 96.80883789 C70.50476824 95.4947404 69.48972525 94.18551729 68.46826172 92.88134766 C67.11535162 91.14780505 65.7889024 89.39817351 64.47265625 87.63671875 C51.41635457 70.23535163 37.10033612 54.2637778 19.62402344 41.21386719 C18.12772691 40.09546876 16.64520149 38.95870858 15.1640625 37.8203125 C1.6271424 27.61800029 -13.67495215 19.68257642 -30 15 C-31.11117187 14.67128906 -32.22234375 14.34257812 -33.3671875 14.00390625 C-78.13136109 1.43346142 -124.84188649 14.12791545 -157.31835938 47.18896484 Z " fill="#010101" transform="translate(408,301)"/>
<path d="M0 0 C13.74446289 4.98452694 24.29851029 17.16912981 30.75 29.98046875 C38.44861501 48.57743563 38.00784943 68.09989598 30.52734375 86.65234375 C25.48719322 97.43564454 18.4761319 106.30200388 10.4375 115 C-1.06096741 127.57517902 -10.42479992 142.1336341 -10.28125 159.5390625 C-9.80753652 165.36837007 -7.75356964 168.09612439 -3.8125 172.375 C1.51969298 175.45582261 6.82367827 175.54153544 12.75 174.125 C30.18278923 168.14262978 44.06427693 151.76517129 52.3125 135.9375 C55.84705538 128.52261753 58.11289566 121.16135989 59 113 C59.66 113 60.32 113 61 113 C70.68383327 125.75499182 74.2082149 142.11096011 72.53125 157.8515625 C69.24796053 177.30988098 57.34606717 191.9416856 43.67529297 205.35522461 C40.06390783 208.8998904 36.69368385 212.56277922 33.421875 216.42578125 C31.49372168 218.56052242 29.26582603 220.23769086 27 222 C26.1646875 223.11375 26.1646875 223.11375 25.3125 224.25 C24.879375 224.8275 24.44625 225.405 24 226 C23.34 226 22.68 226 22 226 C21.75378906 226.57492187 21.50757813 227.14984375 21.25390625 227.7421875 C19.80206947 230.35639827 18.09712451 232.06336208 15.9375 234.125 C13.08428067 236.77905 13.08428067 236.77905 11 240 C6.86760042 238.37573997 4.13562527 235.37258628 1.09765625 232.2578125 C0.53807724 231.69303192 -0.02150177 231.12825134 -0.59803772 230.5463562 C-2.3826889 228.74393484 -4.16051031 226.9349727 -5.9375 225.125 C-7.7117483 223.32302531 -9.48747154 221.52256987 -11.26625061 219.72506714 C-12.37100515 218.60817527 -13.47307686 217.48862116 -14.57200623 216.36599731 C-16.92934883 213.97830366 -19.22550758 211.82361231 -21.87719727 209.74951172 C-22.92798462 208.88350342 -22.92798462 208.88350342 -24 208 C-24 207.34 -24 206.68 -24 206 C-24.66 206 -25.32 206 -26 206 C-26 205.34 -26 204.68 -26 204 C-26.54269531 203.78085937 -27.08539063 203.56171875 -27.64453125 203.3359375 C-42.91624221 194.67437009 -54.83689288 174.8879048 -59.875 158.5625 C-63.93266548 141.39933109 -62.1704928 124.69072841 -52.91796875 109.60546875 C-49.31951048 104.13659022 -45.47646177 99.08219765 -40.67578125 94.6015625 C-38.84138997 92.84841466 -37.21141993 90.99058245 -35.5625 89.0625 C-33.14382221 86.25423653 -30.64100317 83.60029407 -28 81 C-24.12031941 77.16508495 -20.51417068 73.1706641 -17 69 C-16.36191406 68.26265625 -15.72382813 67.5253125 -15.06640625 66.765625 C-3.93052393 53.48071276 4.26659497 37.76491914 4 20 C3.37289345 13.071606 2.35262986 6.56155418 0 0 Z " fill="#010101" transform="translate(493,97)"/>
<path d="M0 0 C0.66 0 1.32 0 2 0 C1.67 0.99 1.34 1.98 1 3 C0.67 2.01 0.34 1.02 0 0 Z " fill="#110F10" transform="translate(578,536)"/>
<path d="" fill="#111211" transform="translate(0,0)"/>
<path d="" fill="#0F100F" transform="translate(0,0)"/>
<path d="M0 0 C0.66 0.66 1.32 1.32 2 2 C1.34 2 0.68 2 0 2 C0 1.34 0 0.68 0 0 Z " fill="#161615" transform="translate(193,495)"/>
<path d="" fill="#181919" transform="translate(0,0)"/>
<path d="" fill="#161615" transform="translate(0,0)"/>
<path d="M0 0 C3 1 3 1 3 1 Z " fill="#141313" transform="translate(688,315)"/>
<path d="M0 0 C3 1 3 1 3 1 Z " fill="#171617" transform="translate(373,288)"/>
<path d="M0 0 C2 1 2 1 2 1 Z " fill="#141414" transform="translate(752,554)"/>
<path d="" fill="#100E11" transform="translate(0,0)"/>
<path d="" fill="#121210" transform="translate(0,0)"/>
<path d="" fill="#141414" transform="translate(0,0)"/>
<path d="" fill="#101111" transform="translate(0,0)"/>
<path d="" fill="#111112" transform="translate(0,0)"/>
<path d="M0 0 C2 1 2 1 2 1 Z " fill="#0D0D0B" transform="translate(570,499)"/>
<path d="" fill="#1A1A19" transform="translate(0,0)"/>
<path d="" fill="#131412" transform="translate(0,0)"/>
<path d="" fill="#0E0E0E" transform="translate(0,0)"/>
<path d="M0 0 C2 1 2 1 2 1 Z " fill="#1B1C1B" transform="translate(739,305)"/>
<path d="M0 0 C2 1 2 1 2 1 Z " fill="#1C1B1B" transform="translate(274,298)"/>
<path d="M0 0 C2 1 2 1 2 1 Z " fill="#171513" transform="translate(694,288)"/>
<path d="" fill="#131312" transform="translate(0,0)"/>
<path d="" fill="#101011" transform="translate(0,0)"/>
<path d="" fill="#111110" transform="translate(0,0)"/>
<path d="" fill="#121210" transform="translate(0,0)"/>
<path d="" fill="#100E0F" transform="translate(0,0)"/>
<path d="" fill="#131010" transform="translate(0,0)"/>
<path d="" fill="#121110" transform="translate(0,0)"/>
<path d="" fill="#101111" transform="translate(0,0)"/>
<path d="" fill="#100F0F" transform="translate(0,0)"/>
<path d="" fill="#0D0E0C" transform="translate(0,0)"/>
<path d="" fill="#131313" transform="translate(0,0)"/>
<path d="" fill="#0D0E0C" transform="translate(0,0)"/>
<path d="" fill="#0E0E0B" transform="translate(0,0)"/>
<path d="" fill="#151513" transform="translate(0,0)"/>
<path d="" fill="#100F11" transform="translate(0,0)"/>
<path d="" fill="#121110" transform="translate(0,0)"/>
<path d="" fill="#121111" transform="translate(0,0)"/>
<path d="" fill="#121112" transform="translate(0,0)"/>
<path d="" fill="#101112" transform="translate(0,0)"/>
<path d="" fill="#101011" transform="translate(0,0)"/>
<path d="" fill="#111310" transform="translate(0,0)"/>
<path d="" fill="#101011" transform="translate(0,0)"/>
<path d="" fill="#101112" transform="translate(0,0)"/>
<path d="" fill="#131010" transform="translate(0,0)"/>
<path d="" fill="#131513" transform="translate(0,0)"/>
<path d="" fill="#0F100F" transform="translate(0,0)"/>
<path d="" fill="#10100E" transform="translate(0,0)"/>
<path d="" fill="#0F0E10" transform="translate(0,0)"/>
<path d="" fill="#101110" transform="translate(0,0)"/>
<path d="" fill="#101211" transform="translate(0,0)"/>
<path d="" fill="#161415" transform="translate(0,0)"/>
<path d="" fill="#120F10" transform="translate(0,0)"/>
<path d="" fill="#171716" transform="translate(0,0)"/>
<path d="" fill="#100F11" transform="translate(0,0)"/>
<path d="" fill="#0F1010" transform="translate(0,0)"/>
<path d="" fill="#131311" transform="translate(0,0)"/>
<path d="" fill="#101010" transform="translate(0,0)"/>
<path d="" fill="#161614" transform="translate(0,0)"/>
<path d="" fill="#11100F" transform="translate(0,0)"/>
<path d="" fill="#131113" transform="translate(0,0)"/>
<path d="" fill="#121313" transform="translate(0,0)"/>
<path d="" fill="#151212" transform="translate(0,0)"/>
<path d="" fill="#161817" transform="translate(0,0)"/>
<path d="" fill="#0F0F10" transform="translate(0,0)"/>
<path d="" fill="#121211" transform="translate(0,0)"/>
<path d="" fill="#10110E" transform="translate(0,0)"/>
<path d="" fill="#171816" transform="translate(0,0)"/>
<path d="" fill="#151615" transform="translate(0,0)"/>
<path d="" fill="#181818" transform="translate(0,0)"/>
<path d="" fill="#0F0F0E" transform="translate(0,0)"/>
<path d="" fill="#131313" transform="translate(0,0)"/>
<path d="" fill="#0F1110" transform="translate(0,0)"/>
<path d="" fill="#0D0E0E" transform="translate(0,0)"/>
<path d="" fill="#131311" transform="translate(0,0)"/>
<path d="" fill="#100F0F" transform="translate(0,0)"/>
<path d="" fill="#121213" transform="translate(0,0)"/>
<path d="" fill="#131113" transform="translate(0,0)"/>
<path d="" fill="#0E0D0D" transform="translate(0,0)"/>
<path d="" fill="#0D0D0D" transform="translate(0,0)"/>
<path d="" fill="#151616" transform="translate(0,0)"/>
<path d="" fill="#110F0F" transform="translate(0,0)"/>
<path d="" fill="#0D0C0E" transform="translate(0,0)"/>
<path d="" fill="#131111" transform="translate(0,0)"/>
<path d="" fill="#161715" transform="translate(0,0)"/>
<path d="" fill="#121310" transform="translate(0,0)"/>
<path d="" fill="#151718" transform="translate(0,0)"/>
<path d="" fill="#131416" transform="translate(0,0)"/>
<path d="" fill="#171716" transform="translate(0,0)"/>
<path d="" fill="#151515" transform="translate(0,0)"/>
<path d="" fill="#151615" transform="translate(0,0)"/>
<path d="" fill="#131312" transform="translate(0,0)"/>
<path d="" fill="#1A1A18" transform="translate(0,0)"/>
<path d="" fill="#171719" transform="translate(0,0)"/>
<path d="" fill="#111313" transform="translate(0,0)"/>
<path d="" fill="#111110" transform="translate(0,0)"/>
<path d="" fill="#0F0E0E" transform="translate(0,0)"/>
<path d="" fill="#121312" transform="translate(0,0)"/>
<path d="" fill="#151514" transform="translate(0,0)"/>
<path d="" fill="#161614" transform="translate(0,0)"/>
<path d="" fill="#181717" transform="translate(0,0)"/>
<path d="" fill="#1A1918" transform="translate(0,0)"/>
<path d="" fill="#1B1B19" transform="translate(0,0)"/>
<path d="" fill="#141513" transform="translate(0,0)"/>
<path d="" fill="#0F100E" transform="translate(0,0)"/>
<path d="" fill="#0E0B0A" transform="translate(0,0)"/>
<path d="" fill="#191713" transform="translate(0,0)"/>
<path d="" fill="#191A18" transform="translate(0,0)"/>
<path d="" fill="#101412" transform="translate(0,0)"/>
<path d="" fill="#191816" transform="translate(0,0)"/>
<path d="" fill="#191616" transform="translate(0,0)"/>
<path d="" fill="#171817" transform="translate(0,0)"/>
<path d="" fill="#0F0F0E" transform="translate(0,0)"/>
<path d="" fill="#151415" transform="translate(0,0)"/>
<path d="" fill="#151413" transform="translate(0,0)"/>
<path d="" fill="#131514" transform="translate(0,0)"/>
<path d="" fill="#080807" transform="translate(0,0)"/>
<path d="" fill="#191A19" transform="translate(0,0)"/>
<path d="" fill="#181616" transform="translate(0,0)"/>
<path d="" fill="#1C1B1A" transform="translate(0,0)"/>
<path d="" fill="#0F0D10" transform="translate(0,0)"/>
<path d="" fill="#0C0D0D" transform="translate(0,0)"/>
<path d="" fill="#181918" transform="translate(0,0)"/>
<path d="" fill="#151513" transform="translate(0,0)"/>
<path d="" fill="#1A1A1A" transform="translate(0,0)"/>
<path d="" fill="#151614" transform="translate(0,0)"/>
<path d="" fill="#141211" transform="translate(0,0)"/>
<path d="" fill="#181717" transform="translate(0,0)"/>
<path d="" fill="#151313" transform="translate(0,0)"/>
<path d="" fill="#141313" transform="translate(0,0)"/>
<path d="" fill="#0E0F10" transform="translate(0,0)"/>
<path d="" fill="#151415" transform="translate(0,0)"/>
<path d="" fill="#141312" transform="translate(0,0)"/>
<path d="" fill="#0E0F0E" transform="translate(0,0)"/>
<path d="" fill="#141313" transform="translate(0,0)"/>
<path d="" fill="#121211" transform="translate(0,0)"/>
<path d="" fill="#10100E" transform="translate(0,0)"/>
<path d="" fill="#1B1C1B" transform="translate(0,0)"/>
<path d="" fill="#151513" transform="translate(0,0)"/>
<path d="" fill="#0C0B0A" transform="translate(0,0)"/>
<path d="" fill="#141412" transform="translate(0,0)"/>
<path d="" fill="#101010" transform="translate(0,0)"/>
<path d="" fill="#101010" transform="translate(0,0)"/>
<path d="" fill="#141212" transform="translate(0,0)"/>
<path d="" fill="#09090A" transform="translate(0,0)"/>
<path d="" fill="#0B0C09" transform="translate(0,0)"/>
<path d="" fill="#141111" transform="translate(0,0)"/>
<path d="" fill="#131413" transform="translate(0,0)"/>
<path d="" fill="#161413" transform="translate(0,0)"/>
<path d="" fill="#0D0C0C" transform="translate(0,0)"/>
<path d="" fill="#181719" transform="translate(0,0)"/>
<path d="" fill="#111010" transform="translate(0,0)"/>
<path d="" fill="#0F0E0F" transform="translate(0,0)"/>
<path d="" fill="#0E0F0C" transform="translate(0,0)"/>
<path d="" fill="#121113" transform="translate(0,0)"/>
<path d="" fill="#1D1D1C" transform="translate(0,0)"/>
<path d="" fill="#141311" transform="translate(0,0)"/>
<path d="" fill="#14120F" transform="translate(0,0)"/>
<path d="" fill="#121411" transform="translate(0,0)"/>
<path d="" fill="#151615" transform="translate(0,0)"/>
<path d="" fill="#111110" transform="translate(0,0)"/>
<path d="" fill="#141512" transform="translate(0,0)"/>
<path d="" fill="#111211" transform="translate(0,0)"/>
<path d="" fill="#0F100D" transform="translate(0,0)"/>
<path d="" fill="#12100F" transform="translate(0,0)"/>
<path d="" fill="#131112" transform="translate(0,0)"/>
<path d="" fill="#0F0F0F" transform="translate(0,0)"/>
<path d="" fill="#101210" transform="translate(0,0)"/>
<path d="" fill="#131212" transform="translate(0,0)"/>
<path d="" fill="#0C0B08" transform="translate(0,0)"/>
<path d="" fill="#131512" transform="translate(0,0)"/>
<path d="" fill="#0D0E0C" transform="translate(0,0)"/>
<path d="" fill="#1B1A1A" transform="translate(0,0)"/>
<path d="" fill="#1A1B1C" transform="translate(0,0)"/>
<path d="" fill="#0F0F0C" transform="translate(0,0)"/>
<path d="" fill="#0F100E" transform="translate(0,0)"/>
<path d="" fill="#131111" transform="translate(0,0)"/>
<path d="" fill="#121313" transform="translate(0,0)"/>
<path d="" fill="#131313" transform="translate(0,0)"/>
<path d="" fill="#151414" transform="translate(0,0)"/>
<path d="" fill="#151412" transform="translate(0,0)"/>
<path d="" fill="#141614" transform="translate(0,0)"/>
<path d="" fill="#181617" transform="translate(0,0)"/>
<path d="" fill="#191817" transform="translate(0,0)"/>
<path d="" fill="#151416" transform="translate(0,0)"/>
<path d="" fill="#11100E" transform="translate(0,0)"/>
<path d="" fill="#161510" transform="translate(0,0)"/>
<path d="" fill="#1A1C1A" transform="translate(0,0)"/>
<path d="" fill="#1A1C19" transform="translate(0,0)"/>
<path d="" fill="#110D0E" transform="translate(0,0)"/>
<path d="" fill="#131312" transform="translate(0,0)"/>
<path d="" fill="#11100F" transform="translate(0,0)"/>
<path d="" fill="#181918" transform="translate(0,0)"/>
<path d="" fill="#121212" transform="translate(0,0)"/>
<path d="" fill="#1E1E1C" transform="translate(0,0)"/>
<path d="" fill="#0C0D0D" transform="translate(0,0)"/>
<path d="" fill="#151614" transform="translate(0,0)"/>
<path d="" fill="#161613" transform="translate(0,0)"/>
<path d="" fill="#111213" transform="translate(0,0)"/>
<path d="" fill="#201F21" transform="translate(0,0)"/>
<path d="" fill="#151516" transform="translate(0,0)"/>
<path d="" fill="#171814" transform="translate(0,0)"/>
<path d="" fill="#1A1E18" transform="translate(0,0)"/>
<path d="" fill="#191917" transform="translate(0,0)"/>
<path d="" fill="#1D1C1B" transform="translate(0,0)"/>
<path d="" fill="#1E1D1C" transform="translate(0,0)"/>
<path d="" fill="#191717" transform="translate(0,0)"/>
<path d="" fill="#1B1C1B" transform="translate(0,0)"/>
<path d="" fill="#10110F" transform="translate(0,0)"/>
<path d="" fill="#1D1C1C" transform="translate(0,0)"/>
<path d="" fill="#1F1C19" transform="translate(0,0)"/>
<path d="" fill="#1D1F1E" transform="translate(0,0)"/>
<path d="" fill="#1C1D1A" transform="translate(0,0)"/>
<path d="" fill="#0D0D0C" transform="translate(0,0)"/>
<path d="" fill="#0F0E0F" transform="translate(0,0)"/>
<path d="" fill="#121212" transform="translate(0,0)"/>
<path d="" fill="#110F10" transform="translate(0,0)"/>
<path d="" fill="#0C0A0C" transform="translate(0,0)"/>
<path d="" fill="#0E0E0F" transform="translate(0,0)"/>
<path d="" fill="#151513" transform="translate(0,0)"/>
<path d="" fill="#131214" transform="translate(0,0)"/>
<path d="" fill="#0E0E0C" transform="translate(0,0)"/>
<path d="" fill="#0D0F0E" transform="translate(0,0)"/>
<path d="" fill="#0F0D0D" transform="translate(0,0)"/>
<path d="" fill="#151614" transform="translate(0,0)"/>
<path d="" fill="#120F10" transform="translate(0,0)"/>
<path d="" fill="#171919" transform="translate(0,0)"/>
<path d="" fill="#1D1C1C" transform="translate(0,0)"/>
<path d="" fill="#1A1B1A" transform="translate(0,0)"/>
<path d="" fill="#131312" transform="translate(0,0)"/>
<path d="" fill="#151414" transform="translate(0,0)"/>
<path d="" fill="#111312" transform="translate(0,0)"/>
<path d="" fill="#151413" transform="translate(0,0)"/>
<path d="" fill="#171814" transform="translate(0,0)"/>
<path d="" fill="#2A2C2C" transform="translate(0,0)"/>
<path d="" fill="#2B2C2C" transform="translate(0,0)"/>
</svg>
